<?xml version="1.0" encoding="UTF-8"?>
<svg xmlns="http://www.w3.org/2000/svg" xmlns:xlink="http://www.w3.org/1999/xlink" width="40px" height="40px" viewBox="0 0 40 40" version="1.1">
<g id="surface1">
<path style=" stroke:none;fill-rule:nonzero;fill:rgb(21.568627%,20.392157%,20.784314%);fill-opacity:1;" d="M 21.714844 5.875 L 22.4375 5.035156 L 22.648438 4.792969 L 22.855469 5.035156 L 25.03125 7.558594 L 25.695312 8.328125 L 28.761719 4.769531 L 28.097656 4 L 25.921875 1.476562 L 25.714844 1.234375 L 25.921875 0.992188 L 26.648438 0.152344 L 26.777344 0 L 26.949219 0.0703125 L 29.917969 1.257812 L 30.070312 1.320312 L 30.109375 1.5 L 31.519531 8.273438 L 39.753906 17.828125 L 39.960938 18.066406 L 39.753906 18.308594 L 37.648438 20.753906 L 37.4375 20.996094 L 37.230469 20.753906 L 29.003906 11.210938 L 22.78125 9.988281 L 22.601562 9.953125 L 22.546875 9.746094 L 21.640625 6.210938 L 21.589844 6.015625 Z M 22.648438 5.757812 L 22.253906 6.214844 L 23.058594 9.351562 L 29.195312 10.554688 L 29.355469 10.648438 L 37.4375 20.027344 L 39.128906 18.066406 L 31.046875 8.691406 L 30.96875 8.527344 L 29.574219 1.84375 L 26.933594 0.785156 L 26.546875 1.234375 L 28.515625 3.515625 L 29.386719 4.527344 L 29.59375 4.769531 L 29.386719 5.011719 L 25.902344 9.054688 L 25.695312 9.292969 L 25.488281 9.054688 L 24.617188 8.042969 L 22.648438 5.757812 "/>
<path style=" stroke:none;fill-rule:nonzero;fill:rgb(21.568627%,20.392157%,20.784314%);fill-opacity:1;" d="M 36.875 17.371094 C 37.03125 17.183594 37.238281 17.09375 37.445312 17.09375 C 37.65625 17.09375 37.863281 17.183594 38.019531 17.371094 C 38.179688 17.554688 38.257812 17.792969 38.257812 18.035156 C 38.257812 18.273438 38.179688 18.515625 38.019531 18.699219 C 37.859375 18.882812 37.652344 18.976562 37.445312 18.976562 L 37.445312 18.972656 C 37.238281 18.972656 37.03125 18.882812 36.875 18.699219 C 36.714844 18.515625 36.636719 18.273438 36.636719 18.035156 C 36.636719 17.792969 36.714844 17.554688 36.875 17.371094 Z M 37.445312 17.589844 C 37.347656 17.589844 37.25 17.632812 37.175781 17.71875 L 37.175781 17.722656 L 37.175781 17.71875 C 37.101562 17.808594 37.066406 17.921875 37.066406 18.035156 C 37.066406 18.148438 37.101562 18.261719 37.175781 18.347656 C 37.25 18.433594 37.347656 18.480469 37.445312 18.480469 L 37.445312 18.476562 C 37.546875 18.476562 37.644531 18.433594 37.71875 18.347656 C 37.792969 18.261719 37.828125 18.148438 37.828125 18.035156 C 37.828125 17.921875 37.792969 17.808594 37.71875 17.71875 L 37.71875 17.722656 C 37.640625 17.632812 37.542969 17.589844 37.445312 17.589844 "/>
<path style=" stroke:none;fill-rule:nonzero;fill:rgb(21.568627%,20.392157%,20.784314%);fill-opacity:1;" d="M 7.09375 17.484375 L 19.898438 17.484375 L 19.898438 30.144531 C 19.898438 32.238281 19.160156 34.140625 17.96875 35.523438 C 16.777344 36.902344 15.136719 37.757812 13.332031 37.757812 C 11.527344 37.757812 9.886719 36.902344 8.695312 35.523438 C 7.507812 34.140625 6.769531 32.238281 6.769531 30.144531 L 6.769531 17.484375 Z M 19.25 18.234375 L 7.414062 18.234375 L 7.414062 30.144531 C 7.414062 32.03125 8.082031 33.746094 9.152344 34.992188 C 10.226562 36.238281 11.707031 37.011719 13.332031 37.011719 C 14.960938 37.011719 16.4375 36.238281 17.511719 34.992188 C 18.585938 33.746094 19.25 32.03125 19.25 30.144531 L 19.25 18.234375 "/>
<path style=" stroke:none;fill-rule:nonzero;fill:rgb(21.568627%,20.392157%,20.784314%);fill-opacity:1;" d="M 9.632812 16.097656 L 17.035156 16.097656 L 17.035156 14.59375 C 17.035156 13.414062 16.617188 12.339844 15.945312 11.5625 C 15.273438 10.78125 14.351562 10.300781 13.332031 10.300781 C 12.316406 10.300781 11.390625 10.78125 10.71875 11.5625 C 10.046875 12.339844 9.632812 13.414062 9.632812 14.59375 Z M 17.355469 16.847656 L 8.984375 16.847656 L 8.984375 14.59375 C 8.984375 13.207031 9.476562 11.945312 10.261719 11.03125 C 11.050781 10.117188 12.136719 9.550781 13.332031 9.550781 C 14.527344 9.550781 15.617188 10.117188 16.402344 11.03125 C 17.191406 11.945312 17.679688 13.207031 17.679688 14.59375 L 17.679688 16.847656 L 17.355469 16.847656 "/>
<path style=" stroke:none;fill-rule:nonzero;fill:rgb(21.568627%,20.392157%,20.784314%);fill-opacity:1;" d="M 15.757812 10.984375 C 15.730469 11.1875 15.851562 11.378906 16.027344 11.410156 C 16.207031 11.4375 16.371094 11.296875 16.394531 11.09375 C 16.398438 11.074219 17.109375 5.160156 21.4375 4.925781 C 21.613281 4.917969 21.753906 4.746094 21.746094 4.539062 C 21.738281 4.332031 21.585938 4.171875 21.410156 4.179688 C 16.542969 4.441406 15.757812 10.964844 15.757812 10.984375 "/>
<path style=" stroke:none;fill-rule:nonzero;fill:rgb(21.568627%,20.392157%,20.784314%);fill-opacity:1;" d="M 10.375 10.960938 C 10.402344 11.164062 10.566406 11.304688 10.742188 11.277344 C 10.917969 11.246094 11.039062 11.054688 11.015625 10.851562 C 11.011719 10.832031 10.230469 4.308594 5.363281 4.046875 C 5.183594 4.039062 5.035156 4.199219 5.027344 4.40625 C 5.019531 4.613281 5.15625 4.785156 5.335938 4.792969 C 9.664062 5.027344 10.375 10.941406 10.375 10.960938 "/>
<path style=" stroke:none;fill-rule:nonzero;fill:rgb(21.568627%,20.392157%,20.784314%);fill-opacity:1;" d="M 19.445312 20.15625 C 19.28125 20.242188 19.207031 20.460938 19.277344 20.652344 C 19.351562 20.839844 19.539062 20.925781 19.703125 20.84375 L 24.261719 18.511719 L 24.132812 18.167969 L 24.261719 18.511719 C 24.363281 18.457031 24.429688 18.351562 24.449219 18.234375 L 25.675781 12.113281 C 25.71875 11.910156 25.609375 11.710938 25.4375 11.664062 C 25.261719 11.617188 25.089844 11.742188 25.050781 11.941406 L 23.855469 17.898438 L 19.445312 20.15625 "/>
<path style=" stroke:none;fill-rule:nonzero;fill:rgb(21.568627%,20.392157%,20.784314%);fill-opacity:1;" d="M 19.703125 27.707031 C 19.539062 27.625 19.347656 27.714844 19.277344 27.90625 C 19.207031 28.09375 19.28125 28.316406 19.445312 28.394531 L 23.863281 30.597656 L 26.039062 39.757812 C 26.085938 39.953125 26.261719 40.070312 26.433594 40.015625 C 26.605469 39.960938 26.707031 39.753906 26.660156 39.558594 L 24.449219 30.253906 C 24.429688 30.136719 24.359375 30.03125 24.257812 29.980469 L 19.703125 27.707031 "/>
<path style=" stroke:none;fill-rule:nonzero;fill:rgb(21.568627%,20.392157%,20.784314%);fill-opacity:1;" d="M 6.96875 20.84375 C 7.128906 20.925781 7.320312 20.839844 7.390625 20.652344 C 7.464844 20.460938 7.390625 20.242188 7.226562 20.15625 L 2.816406 17.898438 L 1.621094 11.941406 C 1.582031 11.742188 1.40625 11.617188 1.234375 11.664062 C 1.0625 11.710938 0.953125 11.910156 0.992188 12.113281 L 2.222656 18.234375 C 2.238281 18.351562 2.308594 18.457031 2.410156 18.511719 L 2.539062 18.167969 L 2.410156 18.511719 L 6.96875 20.84375 "/>
<path style=" stroke:none;fill-rule:nonzero;fill:rgb(21.568627%,20.392157%,20.784314%);fill-opacity:1;" d="M 7.222656 28.394531 C 7.386719 28.316406 7.464844 28.09375 7.394531 27.90625 C 7.324219 27.714844 7.132812 27.625 6.96875 27.707031 L 2.410156 29.980469 C 2.308594 30.03125 2.242188 30.136719 2.222656 30.253906 L 0.0117188 39.558594 C -0.0351562 39.753906 0.0664062 39.960938 0.234375 40.015625 C 0.40625 40.070312 0.585938 39.953125 0.632812 39.757812 L 2.808594 30.597656 L 7.222656 28.394531 "/>
</g>
</svg>
